<?xml version="1.0" encoding="UTF-8" standalone="no"?>
<svg
   viewBox="0 0 512 512"
   version="1.1"
   id="svg158"
   sodipodi:docname="centos.svg"
   width="512"
   height="512"
   inkscape:version="1.2.2 (b0a8486541, 2022-12-01)"
   xmlns:inkscape="http://www.inkscape.org/namespaces/inkscape"
   xmlns:sodipodi="http://sodipodi.sourceforge.net/DTD/sodipodi-0.dtd"
   xmlns="http://www.w3.org/2000/svg"
   xmlns:svg="http://www.w3.org/2000/svg">
  <defs
     id="defs162" />
  <sodipodi:namedview
     id="namedview160"
     pagecolor="#505050"
     bordercolor="#eeeeee"
     borderopacity="1"
     inkscape:showpageshadow="0"
     inkscape:pageopacity="0"
     inkscape:pagecheckerboard="0"
     inkscape:deskcolor="#505050"
     showgrid="false"
     inkscape:zoom="1.1145218"
     inkscape:cx="215.33899"
     inkscape:cy="204.12341"
     inkscape:window-width="1920"
     inkscape:window-height="1013"
     inkscape:window-x="0"
     inkscape:window-y="35"
     inkscape:window-maximized="1"
     inkscape:current-layer="svg158" />
  <path
     d="M 257.25844,3 198.6422,61.76908 h 39.12843 v 117.3089 l 19.56422,19.56422 19.56422,-19.56422 V 61.76908 h 39.12844 z M 81.256878,81.256878 v 78.256882 l 25.295922,-25.29593 83.9886,83.98858 h 27.66501 V 190.5414 l -83.98858,-83.9886 25.29593,-25.295922 z m 105.921902,0 -25.29591,25.295922 56.32354,56.32356 V 81.256878 Z m 109.28451,0 V 162.87636 L 352.78684,106.5528 327.49093,81.256878 Z m 58.69266,0 25.29593,25.295922 -83.98859,83.9886 v 27.66501 h 27.66502 l 83.98859,-83.98858 25.29593,25.29593 V 81.256878 Z M 106.5528,161.88287 81.256878,187.17878 v 31.02763 h 81.619482 z m 301.5641,0 -56.32355,56.32354 h 81.61948 V 187.17878 Z M 61.76908,198.6422 3,257.41127 61.76908,316.02751 v -39.12844 h 117.3089 L 198.6422,257.33485 179.07798,237.77063 H 61.76908 Z m 391.13155,0 v 39.12843 h -117.3089 l -19.56422,19.56422 19.56422,19.56422 h 117.3089 v 39.12844 l 58.76908,-58.76907 z M 81.256878,296.46329 v 31.02764 l 25.295922,25.29591 56.32356,-56.32355 z m 109.284522,0 -83.9886,83.98859 -25.295922,-25.29593 v 78.25688 h 78.256882 l -25.29593,-25.29593 83.98858,-83.98859 v -27.66502 z m 105.92189,0 v 27.66502 l 83.98859,83.98859 -25.29593,25.29593 h 78.25688 v -78.25688 l -25.29593,25.29593 -83.98859,-83.98859 z m 55.33006,0 56.32355,56.32355 25.29593,-25.29591 v -31.02764 z m -94.4585,19.56422 -19.56422,19.56422 v 117.3089 H 198.6422 l 58.76907,58.76908 58.61624,-58.76908 h -39.12844 v -117.3089 z m -39.12844,35.76584 -56.32354,56.32355 25.29591,25.29593 h 31.02763 z m 78.25688,0 v 81.61948 h 31.02764 l 25.29591,-25.29593 z"
     id="path156"
     style="stroke-width:19.5642" />
</svg>
