<?xml version="1.0" encoding="UTF-8" standalone="no"?>
<svg
   enable-background="new 0 0 30 30"
   height="512"
   id="Layer_1"
   version="1.1"
   viewBox="0 0 512 512"
   width="512"
   xml:space="preserve"
   sodipodi:docname="debian.svg"
   inkscape:version="1.2.2 (b0a8486541, 2022-12-01)"
   xmlns:inkscape="http://www.inkscape.org/namespaces/inkscape"
   xmlns:sodipodi="http://sodipodi.sourceforge.net/DTD/sodipodi-0.dtd"
   xmlns="http://www.w3.org/2000/svg"
   xmlns:svg="http://www.w3.org/2000/svg"><defs
     id="defs5824" /><sodipodi:namedview
     id="namedview5822"
     pagecolor="#505050"
     bordercolor="#eeeeee"
     borderopacity="1"
     inkscape:showpageshadow="0"
     inkscape:pageopacity="0"
     inkscape:pagecheckerboard="0"
     inkscape:deskcolor="#505050"
     showgrid="true"
     inkscape:zoom="0.6437618"
     inkscape:cx="-114.94935"
     inkscape:cy="473.00104"
     inkscape:window-width="1920"
     inkscape:window-height="1013"
     inkscape:window-x="0"
     inkscape:window-y="35"
     inkscape:window-maximized="1"
     inkscape:current-layer="Layer_1"><inkscape:grid
       type="xygrid"
       id="grid5943" /></sodipodi:namedview><g
     id="g5819"
     transform="matrix(17.579279,0,0,17.579279,-22.31434,-9.1553921)"><g
       id="g5817"><g
         id="g5811"><path
           d="m 26.25,7.277 c 0.646,0.938 1.018,2.393 1.188,2.995 C 27.307,9.538 27.1,8.826 26.844,8.137 27.039,8.221 26.526,6.627 27.1,7.683 26.489,5.433 24.483,3.331 22.639,2.345 22.862,2.551 23.149,2.811 23.047,2.85 22.129,2.306 22.291,2.262 22.16,2.032 21.41,1.727 21.359,2.056 20.867,2.033 19.459,1.286 19.185,1.364 17.89,0.897 l 0.061,0.275 C 17.017,0.861 16.863,1.289 15.853,1.174 15.792,1.126 16.177,1 16.494,0.953 15.592,1.072 15.633,0.775 14.75,0.986 14.969,0.833 15.199,0.732 15.432,0.601 14.696,0.646 13.674,1.031 13.989,0.681 12.79,1.216 10.657,1.968 9.462,3.089 L 9.425,2.839 C 8.875,3.499 7.035,4.806 6.887,5.657 L 6.74,5.691 C 6.455,6.175 6.27,6.723 6.045,7.218 5.672,7.854 5.5,7.464 5.553,7.563 4.818,9.051 4.451,10.3 4.137,11.326 c 0.225,0.335 0.006,2.017 0.09,3.364 -0.367,6.655 4.672,13.114 10.18,14.604 0.807,0.291 2.006,0.279 3.025,0.307 -1.205,-0.344 -1.357,-0.182 -2.533,-0.59 -0.846,-0.398 -1.029,-0.854 -1.629,-1.375 l 0.236,0.418 C 12.33,27.64 12.82,27.54 11.865,27.238 l 0.254,-0.33 c -0.383,-0.029 -1.012,-0.643 -1.182,-0.982 l -0.418,0.016 C 10.017,25.325 9.751,24.879 9.771,24.534 l -0.135,0.24 C 9.482,24.512 7.792,22.456 8.669,22.934 8.507,22.786 8.292,22.692 8.056,22.264 L 8.232,22.061 C 7.812,21.518 7.457,20.821 7.484,20.59 7.709,20.895 7.865,20.949 8.019,21.004 6.955,18.358 6.894,20.858 6.087,18.311 l 0.17,-0.014 C 6.128,18.1 6.048,17.887 5.943,17.676 l 0.074,-0.74 C 5.251,16.049 5.804,13.165 5.913,11.583 5.991,10.938 6.554,10.254 6.983,9.18 L 6.723,9.135 c 0.5,-0.87 2.85,-3.497 3.939,-3.362 0.527,-0.662 -0.104,-0.002 -0.207,-0.17 1.158,-1.198 1.525,-0.848 2.307,-1.063 0.844,-0.5 -0.727,0.195 -0.324,-0.191 1.459,-0.372 1.033,-0.846 2.936,-1.035 0.199,0.113 -0.465,0.178 -0.633,0.324 1.213,-0.594 3.844,-0.458 5.553,0.33 1.98,0.926 4.209,3.666 4.295,6.24 l 0.102,0.027 c -0.051,1.023 0.156,2.209 -0.201,3.295 l 0.24,-0.515 c 0.031,0.782 -0.227,1.163 -0.459,1.835 l -0.422,0.209 c -0.342,0.666 0.035,0.422 -0.209,0.95 -0.535,0.475 -1.623,1.486 -1.971,1.578 -0.254,-0.004 0.172,-0.299 0.229,-0.414 -0.715,0.49 -0.576,0.738 -1.668,1.037 l -0.033,-0.072 c -2.695,1.27 -6.445,-1.246 -6.396,-4.678 -0.029,0.219 -0.082,0.163 -0.141,0.251 -0.141,-1.766 0.814,-3.539 2.426,-4.265 1.576,-0.779 3.422,-0.46 4.549,0.593 -0.619,-0.811 -1.854,-1.672 -3.313,-1.592 -1.432,0.022 -2.773,0.934 -3.221,1.921 -0.732,0.461 -0.816,1.78 -1.137,2.022 -0.432,3.159 0.807,4.524 2.902,6.132 0.166,0.111 0.189,0.176 0.178,0.232 2.473,0.924 5.029,0.699 7.166,-1.016 0.547,-0.424 1.141,-1.146 1.313,-1.156 -0.258,0.391 0.045,0.188 -0.154,0.531 0.541,-0.875 -0.236,-0.355 0.561,-1.509 l 0.293,0.403 c -0.109,-0.727 0.902,-1.607 0.799,-2.756 0.232,-0.353 0.262,0.378 0.014,1.185 0.342,-0.895 0.09,-1.039 0.178,-1.778 0.096,0.249 0.221,0.513 0.283,0.775 -0.223,-0.866 0.229,-1.46 0.342,-1.963 -0.113,-0.049 -0.346,0.383 -0.398,-0.64 0.008,-0.444 0.123,-0.232 0.168,-0.342 -0.086,-0.051 -0.316,-0.393 -0.453,-1.045 0.098,-0.154 0.268,0.397 0.406,0.42 C 26.472,9.344 26.32,8.948 26.316,8.549 25.912,7.711 26.171,8.661 25.847,8.19 25.414,6.859 26.197,7.883 26.25,7.277 Z"
           id="path5809" /></g><g
         id="g5815"><path
           d="m 14.145,17.527 c 0.277,0.408 0.578,0.803 0.967,1.113 -0.654,-0.221 -1.535,-1.592 -1.789,-1.646 1.131,2.027 4.592,3.555 6.404,2.797 -0.838,0.031 -1.902,0.018 -2.846,-0.332 -0.396,-0.203 -0.934,-0.625 -0.838,-0.703 -0.014,0.057 -0.061,0.107 -0.039,0.191 -0.695,-0.324 -1.334,-0.816 -1.859,-1.42 z"
           id="path5813" /></g></g></g></svg>
