<?xml version="1.0" encoding="UTF-8" standalone="no"?>
<svg
   role="img"
   viewBox="0 0 512 512"
   version="1.1"
   id="svg1408"
   sodipodi:docname="check.svg"
   width="512"
   height="512"
   inkscape:version="1.2.2 (b0a8486541, 2022-12-01)"
   xmlns:inkscape="http://www.inkscape.org/namespaces/inkscape"
   xmlns:sodipodi="http://sodipodi.sourceforge.net/DTD/sodipodi-0.dtd"
   xmlns="http://www.w3.org/2000/svg"
   xmlns:svg="http://www.w3.org/2000/svg"
   xmlns:rdf="http://www.w3.org/1999/02/22-rdf-syntax-ns#"
   xmlns:cc="http://creativecommons.org/ns#"
   xmlns:dc="http://purl.org/dc/elements/1.1/">
  <defs
     id="defs1412" />
  <sodipodi:namedview
     id="namedview1410"
     pagecolor="#505050"
     bordercolor="#eeeeee"
     borderopacity="1"
     inkscape:showpageshadow="0"
     inkscape:pageopacity="0"
     inkscape:pagecheckerboard="0"
     inkscape:deskcolor="#505050"
     showgrid="false"
     inkscape:zoom="1.1380208"
     inkscape:cx="258.34325"
     inkscape:cy="216.60412"
     inkscape:window-width="1920"
     inkscape:window-height="1013"
     inkscape:window-x="0"
     inkscape:window-y="35"
     inkscape:window-maximized="1"
     inkscape:current-layer="svg1408" />
  <title
     id="title1404">elementary</title>
  <path
     d="m 256.02659,0 a 256.02659,256.02659 0 1 0 0,512.05317 256.02659,256.02659 0 0 0 0,-512.05317 z m 0,21.335549 A 234.69104,234.69104 0 0 1 481.97005,192.2333 407.29563,407.29563 0 0 1 382.54639,321.95343 c -20.05541,17.2818 -41.81767,32.64339 -65.71349,43.52452 -24.10917,10.66778 -50.56525,17.06844 -76.80797,15.3616 a 132.92047,132.92047 0 0 1 -56.75256,-16.21502 427.13769,427.13769 0 0 0 121.18591,-97.71681 212.71542,212.71542 0 0 0 49.28512,-88.96924 c 3.8404,-16.85509 4.26711,-34.13688 0.85342,-51.20532 A 94.303126,94.303126 0 0 0 331.55443,81.715152 92.382927,92.382927 0 0 0 288.88333,56.325849 112.01163,112.01163 0 0 0 239.1715,54.619005 166.41728,166.41728 0 0 0 153.61595,103.47741 208.44831,208.44831 0 0 0 90.889438,263.28067 168.12413,168.12413 0 0 0 132.49376,361.21084 384.03988,384.03988 0 0 1 56.539205,379.34606 234.69104,234.69104 0 0 1 256.02659,21.335549 Z m 1.49349,47.364919 c 16.42837,0 33.0701,5.120531 46.29814,14.934884 11.73455,8.96093 20.69548,21.762258 25.60266,35.843718 4.90717,13.86811 6.40066,29.22971 4.48046,43.95123 A 167.48406,167.48406 0 0 1 297.63091,243.65197 346.0626,346.0626 0 0 1 161.72346,349.47629 C 151.4824,340.51536 142.52147,329.84759 136.1208,317.89968 A 141.02798,141.02798 0 0 1 120.11914,235.3311 c 2.56027,-28.16292 12.37462,-55.47242 25.60266,-80.86173 A 168.97755,168.97755 0 0 1 210.15516,81.501797 C 224.66333,73.607644 241.0917,68.700468 257.52008,68.700468 Z M 488.58407,224.44997 A 234.69104,234.69104 0 0 1 75.101132,405.37543 422.44387,422.44387 0 0 0 152.54917,379.77277 c 10.88113,8.53422 23.0424,15.14824 35.63037,20.05542 a 170.68439,170.68439 0 0 0 116.06539,-0.85343 283.7628,283.7628 0 0 0 98.99694,-62.93986 426.71098,426.71098 0 0 0 85.3422,-111.37157 z"
     id="path1406"
     style="stroke-width:21.3355" />
  <metadata
     id="metadata1531">
    <rdf:RDF>
      <cc:Work
         rdf:about="">
        <dc:title>elementary</dc:title>
      </cc:Work>
    </rdf:RDF>
  </metadata>
</svg>
