<?xml version="1.0" encoding="UTF-8" standalone="no"?>
<svg
   width="512"
   height="512"
   viewBox="0 0 512 512"
   version="1.1"
   id="svg5590"
   sodipodi:docname="fedora.svg"
   inkscape:version="1.2.2 (b0a8486541, 2022-12-01)"
   xmlns:inkscape="http://www.inkscape.org/namespaces/inkscape"
   xmlns:sodipodi="http://sodipodi.sourceforge.net/DTD/sodipodi-0.dtd"
   xmlns="http://www.w3.org/2000/svg"
   xmlns:svg="http://www.w3.org/2000/svg">
  <defs
     id="defs5594" />
  <sodipodi:namedview
     id="namedview5592"
     pagecolor="#505050"
     bordercolor="#eeeeee"
     borderopacity="1"
     inkscape:showpageshadow="0"
     inkscape:pageopacity="0"
     inkscape:pagecheckerboard="0"
     inkscape:deskcolor="#505050"
     showgrid="false"
     inkscape:zoom="1.2070534"
     inkscape:cx="402.6334"
     inkscape:cy="256.40954"
     inkscape:window-width="1920"
     inkscape:window-height="1013"
     inkscape:window-x="0"
     inkscape:window-y="35"
     inkscape:window-maximized="1"
     inkscape:current-layer="svg5590" />
  <path
     d="M 255.92554,0 C 114.63865,0 0.07997673,114.4627 0,255.76559 v 198.02239 c 0.07997673,32.07067 26.072415,58.0631 58.143084,58.0631 H 256.00552 C 397.29241,511.77111 511.85108,397.21244 511.85108,255.92554 511.85108,114.54268 397.30841,0 255.92554,0 Z m 97.9715,118.97339 c -8.07765,0 -11.0048,-1.58354 -22.82536,-1.58354 -34.99782,0 -63.30958,28.32776 -63.40555,63.30958 v 55.07198 c 0,4.91057 3.99883,9.00538 8.9094,9.00538 h 41.65189 c 15.57946,0 28.07183,12.33241 28.07183,27.91188 0,15.65944 -12.66831,27.99185 -28.32776,27.99185 H 267.65013 V 364.326 c 0,31.83074 -12.66831,62.39785 -35.15777,84.98328 -22.56943,22.48946 -53.15254,35.15777 -84.98328,35.15777 -9.00538,0 -17.91478,-1.16766 -26.48829,-3.58296 -13.66003,-3.58295 -24.7448,-14.74771 -24.7448,-27.65595 0,-15.65944 11.42068,-27.08012 28.40774,-27.08012 8.07765,0 10.9888,1.58354 22.82535,1.58354 34.99782,0 63.30959,-28.32776 63.40556,-63.30958 V 309.35 c 0,-5.00654 -3.99884,-8.90941 -8.90941,-8.90941 h -41.65188 c -15.57947,0 -28.07184,-12.41239 -28.07184,-27.99185 0,-15.65945 12.66832,-27.99186 28.32776,-27.99186 h 50.32136 V 180.8114 c 0,-66.31671 53.72837,-120.125056 120.12505,-120.125056 9.9971,0 17.16301,1.16766 26.4883,3.582958 13.58005,3.582957 24.7448,14.747709 24.7448,27.655954 0,15.659444 -11.42068,27.080124 -28.40774,27.080124 z"
     id="path5588"
     style="stroke-width:15.9953" />
</svg>
