<?xml version="1.0" encoding="UTF-8" standalone="no"?>
<svg
   version="1.1"
   id="mdi-gentoo"
   width="512"
   height="512"
   viewBox="0 0 512 512"
   sodipodi:docname="gentoo.svg"
   inkscape:version="1.2.2 (b0a8486541, 2022-12-01)"
   xmlns:inkscape="http://www.inkscape.org/namespaces/inkscape"
   xmlns:sodipodi="http://sodipodi.sourceforge.net/DTD/sodipodi-0.dtd"
   xmlns="http://www.w3.org/2000/svg"
   xmlns:svg="http://www.w3.org/2000/svg">
  <defs
     id="defs8284" />
  <sodipodi:namedview
     id="namedview8282"
     pagecolor="#505050"
     bordercolor="#eeeeee"
     borderopacity="1"
     inkscape:showpageshadow="0"
     inkscape:pageopacity="0"
     inkscape:pagecheckerboard="0"
     inkscape:deskcolor="#505050"
     showgrid="true"
     inkscape:zoom="1.1380208"
     inkscape:cx="287.34096"
     inkscape:cy="199.90847"
     inkscape:window-width="1920"
     inkscape:window-height="1013"
     inkscape:window-x="0"
     inkscape:window-y="35"
     inkscape:window-maximized="1"
     inkscape:current-layer="mdi-gentoo">
    <inkscape:grid
       type="xygrid"
       id="grid8403" />
  </sodipodi:namedview>
  <path
     d="m 212.53803,-0.08680478 c -8.96503,0 -18.1862,0.76843112 -26.89509,2.56143708 C 92.918916,19.380116 27.602272,99.553094 22.223255,152.57484 c -2.817581,25.87051 11.270322,45.33743 18.954633,53.79017 20.74764,23.30908 62.499062,40.983 89.138012,55.58319 -38.677703,32.53024 -56.351618,48.92344 -73.769389,67.36578 -26.126658,27.40738 -44.569004,57.3762 -44.569004,79.14842 0,6.91587 -1.280719,29.20038 7.940454,46.61814 3.329868,6.65974 13.063328,28.6881 42.263711,45.0813 18.69849,10.50189 45.081288,14.34405 71.207958,10.75804 80.42911,-11.52647 188.26562,-79.91684 265.36487,-143.44048 48.92344,-40.4707 84.78356,-79.91684 95.02931,-98.61533 8.45274,-16.13705 9.47732,-44.05672 4.61059,-61.73062 C 484.56264,157.18542 372.62784,54.984091 281.18454,14.001099 260.18076,4.5237819 236.10325,-0.08680478 212.53803,-0.08680478 M 239.68926,74.451012 c 6.40359,0 12.03875,0.768431 16.90549,2.305294 29.45652,7.684311 78.89225,43.032144 74.53781,75.306244 -5.8913,42.51985 -43.03214,59.68148 -85.80814,53.53404 -25.10208,-3.32988 -75.0501,-31.50568 -71.20795,-80.42913 2.81758,-38.165406 38.93385,-50.972591 65.57279,-50.716448 m -0.51229,44.568998 c -6.91587,0 -12.29489,1.53686 -14.85633,5.63516 -12.03876,18.44235 -6.14745,31.24953 4.61058,39.70227 3.84216,-9.73345 45.84973,0.76844 46.87431,9.47732 36.3724,-27.40737 -9.98961,-54.5586 -36.62856,-54.81475 z"
     id="path8279"
     style="stroke-width:25.6144" />
</svg>
