<?xml version="1.0" encoding="UTF-8" standalone="no"?>
<svg
   clip-rule="evenodd"
   fill-rule="evenodd"
   stroke-linejoin="round"
   stroke-miterlimit="1.41421"
   viewBox="0 0 512 512"
   version="1.1"
   id="svg208"
   sodipodi:docname="guix.svg"
   inkscape:version="1.2.2 (b0a8486541, 2022-12-01)"
   xmlns:inkscape="http://www.inkscape.org/namespaces/inkscape"
   xmlns:sodipodi="http://sodipodi.sourceforge.net/DTD/sodipodi-0.dtd"
   xmlns="http://www.w3.org/2000/svg"
   xmlns:svg="http://www.w3.org/2000/svg">
  <defs
     id="defs212" />
  <sodipodi:namedview
     id="namedview210"
     pagecolor="#505050"
     bordercolor="#eeeeee"
     borderopacity="1"
     inkscape:showpageshadow="0"
     inkscape:pageopacity="0"
     inkscape:pagecheckerboard="0"
     inkscape:deskcolor="#505050"
     showgrid="false"
     inkscape:zoom="1.1145218"
     inkscape:cx="128.30615"
     inkscape:cy="257.06092"
     inkscape:window-width="1920"
     inkscape:window-height="1013"
     inkscape:window-x="0"
     inkscape:window-y="35"
     inkscape:window-maximized="1"
     inkscape:current-layer="svg208" />
  <path
     d="m 19.254966,100.34886 -13.7917794,5.15287 -2.660235,0.99238 v 0.002 l -0.00406,0.001 c 0.8999497,2.22448 1.8100568,4.38802 2.7262584,6.51905 0.1960386,0.45506 0.3941089,0.8969 0.5911633,1.34789 0.4459119,1.02489 0.8897924,2.06399 1.3397676,3.06654 l 0.00201,0.002 c 0.2630782,0.5871 0.5292036,1.14779 0.7932972,1.72677 0.1320463,0.28847 0.2620618,0.5942 0.3941081,0.88065 0.3961408,0.86033 0.7892335,1.70543 1.189437,2.54952 v 0.002 c 0,0.003 -0.00201,0.0102 0,0.0102 0.3971558,0.84001 0.8044688,1.66988 1.2046728,2.49364 0.134078,0.27425 0.27222,0.53835 0.405282,0.81057 0.0132,0.0264 0.02539,0.0518 0.0386,0.0782 0.463179,0.94261 0.92839,1.87505 1.395632,2.79532 0.195024,0.38904 0.388015,0.79228 0.585069,1.17522 0.003,0.008 0.0082,0.008 0.01117,0.0122 0.326054,0.63382 0.653124,1.2585 0.98121,1.88116 0.08025,0.15337 0.159472,0.31488 0.239716,0.46724 l 0.002,0.002 c 1.642459,3.10514 3.307264,6.07517 4.9934,8.9091 l 0.002,0.002 c 0.05688,0.0945 0.112747,0.18283 0.169629,0.27628 0.364652,0.61046 0.725241,1.21178 1.093957,1.81208 0.163535,0.26715 0.324022,0.53327 0.488572,0.7994 0.201118,0.32402 0.40833,0.645 0.612495,0.96597 0.06094,0.0965 0.120873,0.19908 0.180803,0.29457 l 0.002,0.002 c 0.0711,0.11579 0.145252,0.22447 0.21737,0.34027 0.343321,0.55765 0.683596,1.11326 1.034028,1.66074 0.254952,0.39717 0.519045,0.77908 0.779076,1.17116 0.03859,0.0579 0.07516,0.11884 0.113763,0.17674 0.131031,0.2001 0.256984,0.41137 0.38903,0.61047 l 0.002,0.002 c 0.175724,0.26308 0.357542,0.51193 0.533265,0.774 0.08126,0.11885 0.160489,0.24277 0.240733,0.36161 0.173691,0.25596 0.344337,0.51498 0.519044,0.76891 0.437787,0.63586 0.872526,1.2575 1.316405,1.87812 0.001,0.001 0.001,0.002 0.002,0.004 l 0.002,0.002 c 0.578975,0.80752 1.17217,1.58253 1.762317,2.36567 0.308786,0.41036 0.610462,0.83799 0.922296,1.24124 l 0.0061,0.006 c 0.453022,0.58507 0.909092,1.161 1.368207,1.73185 0.207212,0.25698 0.420519,0.49771 0.627731,0.75164 0.507872,0.61961 1.020823,1.23008 1.535806,1.8314 0.214322,0.25089 0.42255,0.51599 0.637888,0.76383 0.282377,0.32402 0.57288,0.63281 0.859319,0.95278 0.119859,0.13306 0.235653,0.27425 0.355511,0.4073 0.07516,0.0823 0.146267,0.17268 0.221433,0.25496 l 0.002,0.002 c 0.124937,0.13713 0.253937,0.2651 0.379889,0.40122 0.121889,0.13306 0.242763,0.27324 0.365667,0.40629 0.231591,0.24886 0.469275,0.49569 0.70188,0.7415 0.163535,0.17268 0.331134,0.33215 0.495684,0.5028 0.616557,0.64296 1.238192,1.27272 1.864907,1.89131 l 0.02539,0.0254 c 0.191976,0.18892 0.376841,0.39207 0.568817,0.57897 0.498731,0.48349 0.994414,0.95988 1.499239,1.42814 l 0.0082,0.008 c 0.004,0.003 0.0082,0.008 0.01219,0.0112 0.500763,0.46419 0.998477,0.9162 1.505333,1.36618 0.472322,0.4195 0.946674,0.82581 1.424074,1.23108 0.04164,0.0355 0.08126,0.0742 0.122906,0.1097 l 0.002,0.002 c 0.131031,0.10767 0.267141,0.20519 0.398171,0.31184 0.04266,0.0355 0.08635,0.069 0.129001,0.1036 0.708989,0.57593 1.424073,1.14068 2.147284,1.69021 0.159471,0.12087 0.311833,0.25291 0.471304,0.37176 l 0.002,0.002 c 0.280346,0.21026 0.570849,0.4002 0.853226,0.60639 0.01727,0.0132 0.03454,0.0254 0.05181,0.0386 0.235653,0.17064 0.465211,0.35144 0.70188,0.52006 0.186897,0.13305 0.379888,0.25292 0.566785,0.38395 0.356526,0.24987 0.702895,0.51498 1.062469,0.75774 10e-4,0.001 0.002,0.001 0.004,0.002 0.351448,0.23871 0.714069,0.45608 1.06958,0.68867 0.394108,0.25801 0.789233,0.51194 1.187405,0.76283 0.357541,0.22549 0.706958,0.46623 1.067548,0.68665 10e-4,10e-4 0.003,10e-4 0.004,0.002 0.349416,0.2123 0.710005,0.40529 1.061453,0.6125 0.432707,0.25393 0.868461,0.50279 1.305231,0.74962 0.352464,0.19807 0.696801,0.4134 1.051296,0.6064 l 0.002,0.002 c 0.354496,0.19299 0.72118,0.36567 1.077706,0.55257 0.005,0.003 0.0092,0.006 0.01422,0.008 0.438801,0.23057 0.879635,0.45606 1.322499,0.67851 0.3677,0.18385 0.727273,0.38395 1.09802,0.56272 0.386999,0.18588 0.785171,0.35145 1.175216,0.53226 0.207212,0.0965 0.40833,0.20416 0.616558,0.29862 0.601321,0.27222 1.198578,0.54037 1.807009,0.7994 h 0.002 c 0.002,0.001 0.004,0.001 0.0061,0.002 1.288979,0.54646 2.59929,1.06145 3.92382,1.54494 0.550534,0.20011 1.099037,0.39005 1.658711,0.58101 0.356526,0.12189 0.721179,0.23565 1.083799,0.35348 0.279331,0.0924 0.553582,0.19807 0.834943,0.28643 0.234637,0.0742 0.479431,0.13714 0.7161,0.20925 0.404266,0.12494 0.806501,0.25089 1.216861,0.36973 0.225496,0.066 0.462164,0.12087 0.689692,0.18487 0.804469,0.2265 1.615033,0.44489 2.434739,0.65211 0.28644,0.0732 0.563738,0.15845 0.852209,0.22854 0.461149,0.11173 0.927375,0.2133 1.392587,0.3169 0.474352,0.10767 0.953783,0.21027 1.433215,0.31184 0.420518,0.0904 0.839004,0.18182 1.265617,0.26613 0.418487,0.0833 0.840021,0.15744 1.26054,0.23464 2.104622,0.39105 4.260032,0.71914 6.461151,0.9944 0.842052,0.10667 1.688167,0.20925 2.545455,0.29864 0.464196,0.0477 0.93347,0.0904 1.401728,0.13306 0.46318,0.0437 0.919249,0.0955 1.385476,0.13306 0.365668,0.0295 0.745556,0.0447 1.114271,0.0722 0.796344,0.0579 1.597772,0.10868 2.406298,0.15338 0.365675,0.0193 0.721186,0.0518 1.089898,0.069 0.35653,0.0163 0.72626,0.0183 1.08582,0.0315 0.95176,0.0385 1.91367,0.064 2.88066,0.0843 0.25901,0.005 0.50889,0.0193 0.7679,0.0233 0.34841,0.005 0.70087,0.002 1.05028,0.004 0.45607,0.004 0.90097,0.0223 1.36008,0.0223 0.55866,0 1.05841,-0.0152 1.60691,-0.0183 0.67445,-0.001 1.36212,-0.002 2.02032,-0.008 0.94566,-0.009 1.86186,-0.0275 2.774,-0.0477 0.53224,-0.0112 1.05028,-0.0275 1.57135,-0.0417 0.81971,-0.0243 1.64145,-0.0477 2.43372,-0.0792 0.82276,-0.0355 1.62012,-0.0701 2.41443,-0.10767 2.80244,-0.14221 5.4322,-0.33216 7.86695,-0.58102 0.063,-0.006 0.12594,-0.0132 0.18892,-0.0193 1.31437,-0.13713 2.59523,-0.28441 3.80396,-0.45404 0.0132,0.005 0.0264,0.0112 0.0396,0.0162 0.38193,0.1544 0.76385,0.33825 1.14577,0.53123 0.0203,0.0112 0.0406,0.0203 0.061,0.0315 0.22144,0.11275 0.44186,0.24074 0.66226,0.36567 l 0.0427,0.0244 c 0.1615,0.0935 0.32403,0.18791 0.48654,0.28848 0.24074,0.14728 0.47943,0.30065 0.72017,0.46318 0.29761,0.20212 0.5942,0.41137 0.8908,0.63584 0.17268,0.13104 0.34637,0.26816 0.51905,0.4063 0.37684,0.30169 0.75368,0.60946 1.1295,0.94668 0.001,0.001 0.003,0.001 0.004,0.002 0.4713,0.42255 0.94261,0.87456 1.41391,1.35196 l 0.002,0.002 c 0.47132,0.4774 0.94363,0.98222 1.41393,1.51346 l 0.002,0.002 c 0.47029,0.53021 0.93957,1.08786 1.40986,1.66989 l 0.002,0.002 c 0.46928,0.58303 0.93854,1.19146 1.40782,1.82326 l 0.002,0.002 c 0.46927,0.63281 0.93753,1.29 1.4058,1.97157 l 0.002,0.002 c 0.46825,0.68055 0.93651,1.38751 1.40376,2.1158 l 0.002,0.002 c 0.9355,1.45658 1.86897,3.00661 2.80243,4.64298 l 0.002,0.002 c 0.46623,0.81767 0.93246,1.65667 1.39767,2.51701 0.0173,0.0325 0.0345,0.068 0.0518,0.0995 0.91417,1.69325 1.82835,3.46572 2.74048,5.31438 l 0.002,0.002 c 0.46419,0.94058 0.92737,1.90147 1.39156,2.88066 l 0.002,0.002 c 1.85678,3.91875 3.70645,8.1351 5.5541,12.60234 l 0.002,0.002 c 0.92433,2.23262 1.84662,4.5282 2.7679,6.88066 l 0.002,0.002 c 0.9223,2.35144 1.84256,4.75977 2.76282,7.21787 0,0.002 0.001,0.003 0.002,0.004 1.84053,4.91823 3.67699,10.03961 5.51244,15.31235 l 0.002,0.002 c 0.91723,2.63688 1.83342,5.31134 2.74962,8.01829 l 0.002,0.002 c 11.91671,35.20267 23.74912,75.87003 35.70545,108.75273 0.001,0.001 0.002,0.003 0.002,0.004 2.75876,7.58659 5.52362,14.7608 8.29864,21.35602 l 0.002,0.002 c 0.92433,2.19705 1.84865,4.33114 2.77603,6.39512 0,0.001 10e-4,0.001 0.002,0.002 v 0.002 h 72.24178 c 0,-0.001 0,-0.002 0,-0.002 28.13917,-62.65519 55.25041,-189.93916 83.99294,-213.30433 0.25494,-0.2072 0.51192,-0.40934 0.7679,-0.6003 0.0427,-0.0325 0.0853,-0.062 0.129,-0.0935 0.51802,-0.3809 1.03605,-0.72728 1.5551,-1.03809 0.0712,-0.0427 0.14322,-0.0843 0.21432,-0.12493 0.26511,-0.1544 0.53124,-0.3027 0.79533,-0.43779 0.0863,-0.0447 0.17064,-0.0864 0.25495,-0.129 0.28137,-0.13713 0.56171,-0.27425 0.84307,-0.39004 0.0488,-0.0203 0.0975,-0.0427 0.14525,-0.062 6.61148,0.92534 14.80549,1.35805 24.6826,1.35805 7.16099,0 13.89131,-0.4967 20.22651,-1.4708 5.12545,-0.78619 9.999,-1.88014 14.5861,-3.32962 4.72931,-1.49314 9.22803,-3.38445 13.52667,-5.63941 0.36059,-0.18893 0.73032,-0.36262 1.08785,-0.55662 0.002,-0.001 0.004,-0.003 0.006,-0.004 1.15287,-0.62773 2.28949,-1.28187 3.41189,-1.96445 0.003,-0.002 0.005,-0.005 0.008,-0.006 1.12138,-0.68359 2.22955,-1.39258 3.32148,-2.13204 0.003,-0.002 0.006,-0.005 0.009,-0.008 1.09091,-0.73946 2.16659,-1.50534 3.22804,-2.30066 0.003,-0.002 0.006,-0.005 0.0102,-0.008 1.06045,-0.79533 2.10666,-1.61809 3.13764,-2.46928 0.003,-0.003 0.006,-0.007 0.0102,-0.0102 0.57999,-0.49162 1.14779,-1.01472 1.71965,-1.52564 0.44794,-0.40021 0.903,-0.78314 1.34688,-1.19452 1.00661,-0.93448 2,-1.90148 2.98223,-2.89589 5.91366,-5.98578 11.37837,-13.04521 16.37482,-21.14678 6.83697,-10.79534 13.3225,-23.76538 19.44033,-38.87966 l -0.004,-0.002 v -0.001 l -2.70289,-1.00864 -13.74912,-5.13663 v 0.002 c -0.001,0.002 -0.002,0.004 -0.004,0.006 l -0.002,0.002 c -1.30219,2.38091 -2.60741,4.65109 -3.92077,6.8126 -0.6572,1.08278 -1.31641,2.13813 -1.97664,3.16607 -10e-4,0.001 -10e-4,0.003 -0.002,0.004 -0.65923,1.02692 -1.32048,2.0254 -1.98274,2.99848 -0.001,10e-4 -0.002,10e-4 -0.002,0.002 -2.65109,3.89538 -5.32555,7.36415 -8.02438,10.42255 -5.21788,5.93805 -10.9731,10.6897 -17.27071,14.28848 -1.51549,0.84612 -3.07771,1.62317 -4.69274,2.35247 -0.0102,0.006 -0.0233,0.0183 -0.0407,0.0295 -4.89691,2.20416 -10.25192,3.86186 -16.05792,4.9416 -7.55713,1.25951 -16.23363,1.89944 -26.13002,1.89944 -7.30016,0 -13.86187,-0.37278 -19.62114,-1.0838 h -0.0914 c -0.73134,-0.0579 -2.23972,-0.29864 -3.79889,-0.54343 -1.64246,-0.25698 -3.32046,-0.50584 -5.9675,-0.99644 -48.51704,-8.97614 -64.60745,24.70494 -68.08434,33.99798 -0.54343,1.45353 -0.8126,2.35043 -0.8126,2.35043 l -58.9528,164.37795 -0.0437,0.0732 -0.0437,-0.0732 -58.95279,-164.37795 c 0,0 -0.26918,-0.8969 -0.81261,-2.35043 -0.21736,-0.581 -0.48653,-1.25952 -0.80751,-2.01523 -0.31996,-0.75368 -0.69477,-1.58659 -1.12747,-2.48146 -0.001,-10e-4 -0.002,-0.003 -0.002,-0.004 -0.0102,-0.0213 -0.0233,-0.0467 -0.0335,-0.067 -0.64499,-1.32758 -1.41594,-2.7872 -2.33316,-4.33113 -0.19401,-0.32809 -0.40732,-0.66633 -0.61453,-1.00052 -0.12392,-0.2001 -0.2387,-0.39613 -0.36769,-0.59827 -0.066,-0.10462 -0.14119,-0.21229 -0.20925,-0.3169 -1.3357,-2.06704 -2.9162,-4.23668 -4.78619,-6.39513 -0.4906,-0.5668 -1.00051,-1.13358 -1.53174,-1.69629 l -0.001,-0.002 c -0.53123,-0.56272 -1.08177,-1.1224 -1.65262,-1.67801 l -0.002,-0.002 c -0.57186,-0.55561 -1.16303,-1.10717 -1.77654,-1.65059 -10e-4,-0.001 -0.003,-0.001 -0.004,-0.002 -0.6125,-0.54343 -1.24632,-1.08076 -1.90249,-1.60894 -0.001,-0.001 -0.003,-0.001 -0.004,-0.002 -0.45403,-0.36466 -0.93143,-0.71813 -1.40579,-1.07364 -0.2133,-0.15947 -0.41544,-0.32606 -0.63281,-0.48349 -0.70086,-0.50787 -1.4261,-1.00457 -2.17369,-1.48909 l -0.002,-0.002 c -0.74658,-0.4845 -1.51651,-0.95581 -2.31082,-1.41188 -0.001,-0.001 -0.002,-0.002 -0.003,-0.002 -1.58964,-0.91316 -3.27374,-1.76537 -5.05739,-2.5414 -0.001,-0.001 -0.003,-0.002 -0.004,-0.002 -0.89183,-0.38801 -1.80802,-0.75572 -2.75064,-1.10411 l -0.002,-0.002 c -9.4322,-3.47995 -21.42815,-4.84104 -36.59017,-2.03657 -2.64703,0.4906 -4.32504,0.73946 -5.9675,0.99644 -1.55917,0.2448 -3.06653,0.4835 -3.79685,0.54139 h -0.0914 c -5.75927,0.71102 -12.31894,1.08584 -19.619094,1.08584 -9.896405,0 -18.572894,-0.63992 -26.130034,-1.89945 -1.932961,-0.35957 -3.817168,-0.78212 -5.649571,-1.26866 -0.002,0 -0.003,-0.002 -0.004,-0.002 -3.662774,-0.97206 -7.125447,-2.19704 -10.384972,-3.66277 -0.004,-0.003 -0.0092,-0.005 -0.01422,-0.008 -0.01524,-0.008 -0.02641,-0.0223 -0.04164,-0.0335 -1.611986,-0.72728 -3.181312,-1.51041 -4.692739,-2.35449 -0.003,-0.002 -0.0092,0.001 -0.01219,0 -0.116811,-0.067 -0.232606,-0.13916 -0.349417,-0.20722 -0.505841,-0.29355 -1.007619,-0.59421 -1.505333,-0.90299 -0.155409,-0.0975 -0.31285,-0.193 -0.469275,-0.29255 -0.771965,-0.48653 -1.538852,-0.98323 -2.293551,-1.50736 -10e-4,-0.001 -0.002,-0.002 -0.004,-0.003 -0.02946,-0.0213 -0.05891,-0.0437 -0.08938,-0.064 -0.473337,-0.32909 -0.939564,-0.67445 -1.40579,-1.01879 -0.509904,-0.3748 -1.013713,-0.75775 -1.51549,-1.15083 -0.343322,-0.26918 -0.68766,-0.53631 -1.027934,-0.81361 -0.123921,-0.10054 -0.248858,-0.1991 -0.373794,-0.30168 -0.10259,-0.0853 -0.204165,-0.1737 -0.305739,-0.25902 -0.412393,-0.34434 -0.819706,-0.69883 -1.224989,-1.05536 -0.199085,-0.17877 -0.399187,-0.35551 -0.599289,-0.53529 -0.863383,-0.77705 -1.714577,-1.57847 -2.553581,-2.40833 -0.04876,-0.0488 -0.09752,-0.0995 -0.146268,-0.14932 -0.738445,-0.73438 -1.465719,-1.49518 -2.183851,-2.27526 -0.280345,-0.30372 -0.561706,-0.60742 -0.839004,-0.91824 -0.129,-0.14321 -0.257999,-0.2844 -0.383952,-0.42763 -0.605384,-0.68665 -1.208736,-1.3936 -1.812088,-2.12189 -10e-4,-0.002 -0.002,-0.004 -0.004,-0.006 -0.390045,-0.47131 -0.781107,-0.96598 -1.171154,-1.45556 -0.243778,-0.30574 -0.488572,-0.60539 -0.731335,-0.91824 -0.100554,-0.13306 -0.200102,-0.26612 -0.302692,-0.4002 -0.182835,-0.23667 -0.366684,-0.48045 -0.550534,-0.72016 -0.264094,-0.3484 -0.526156,-0.7029 -0.789233,-1.05942 -0.671408,-0.91012 -1.339767,-1.84155 -2.007112,-2.80651 -0.05688,-0.0822 -0.115794,-0.1615 -0.172676,-0.24378 -0.821737,-1.1935 -1.641443,-2.42661 -2.460133,-3.70137 -0.660235,-1.02794 -1.319453,-2.08329 -1.976639,-3.16607 -0.304724,-0.50178 -0.604368,-1.00762 -0.909092,-1.52058 -0.03251,-0.0558 -0.06603,-0.1097 -0.09853,-0.16556 -0.972068,-1.6445 -1.947182,-3.35704 -2.914171,-5.1224 l -0.002,0.0102 c -0.001,-0.002 -0.002,-0.004 -0.003,-0.006 v -0.002 l -0.004,0.002 v -0.002 z"
     fill="#4d4d4d"
     fill-rule="nonzero"
     id="path206"
     style="fill:#00000f;fill-opacity:1;stroke-width:1.01574" />
</svg>
