<?xml version="1.0" encoding="UTF-8" standalone="no"?>
<svg
   width="512"
   height="512"
   viewBox="0 0 512 512"
   version="1.1"
   id="svg3219"
   sodipodi:docname="mint.svg"
   inkscape:version="1.2.2 (b0a8486541, 2022-12-01)"
   xmlns:inkscape="http://www.inkscape.org/namespaces/inkscape"
   xmlns:sodipodi="http://sodipodi.sourceforge.net/DTD/sodipodi-0.dtd"
   xmlns="http://www.w3.org/2000/svg"
   xmlns:svg="http://www.w3.org/2000/svg">
  <defs
     id="defs3223" />
  <sodipodi:namedview
     id="namedview3221"
     pagecolor="#505050"
     bordercolor="#eeeeee"
     borderopacity="1"
     inkscape:showpageshadow="0"
     inkscape:pageopacity="0"
     inkscape:pagecheckerboard="0"
     inkscape:deskcolor="#505050"
     showgrid="true"
     inkscape:zoom="1.2070534"
     inkscape:cx="151.60887"
     inkscape:cy="308.60276"
     inkscape:window-width="1920"
     inkscape:window-height="1013"
     inkscape:window-x="0"
     inkscape:window-y="35"
     inkscape:window-maximized="1"
     inkscape:current-layer="svg3219">
    <inkscape:grid
       type="xygrid"
       id="grid3342" />
  </sodipodi:namedview>
  <path
     d="M -0.25535535,35.660992 V 125.24747 H 38.788593 c 27.27311,0 32.029489,18.43297 32.029489,43.96048 l 0.256236,158.22568 c 0,81.99549 73.491652,148.47269 163.990982,148.47269 h 223.45373 c 28.60233,0 53.71345,-17.76035 53.71345,-45.04947 V 185.46291 c 0,-81.99549 -73.49166,-148.392621 -164.07105,-148.392621 H 254.0748 V 36.73398 Z M 121.93715,90.463449 h 44.87331 V 315.99909 c 0,30.1878 21.02735,53.55331 45.70608,53.55331 l 153.05292,0.67262 c 31.9494,0 56.88437,-21.52382 56.88437,-47.13139 l -0.33632,-119.6942 c 0.25624,-7.33475 -2.75453,-14.42929 -8.16752,-19.4419 -5.09268,-5.33291 -12.1712,-8.34368 -19.60204,-8.16753 -8.00737,0 -13.93283,2.49831 -19.60205,8.16753 -5.429,5.01261 -8.42375,12.09113 -8.26361,19.4419 v 102.4303 h -47.4677 v -102.4303 c 0,-7.75114 -2.67446,-13.85276 -8.34368,-19.4419 -5.01262,-5.429 -12.17121,-8.34368 -19.52198,-8.16753 -7.84722,0 -13.85275,2.57838 -19.52197,8.16753 -5.66922,5.58914 -8.34369,11.67474 -8.34369,19.4419 V 305.9098 H 215.81558 V 203.39943 c 0,-20.27467 7.67106,-38.19517 22.18042,-52.62445 14.0129,-14.17305 33.19857,-22.02028 53.13692,-21.86013 20.01843,0 37.36239,7.43084 51.47139,20.77112 13.85275,-13.43637 32.44587,-20.85119 51.71161,-20.77112 20.35473,0 38.4514,7.43084 53.05684,21.86013 14.34922,13.75666 22.35659,32.78218 22.27652,52.62445 l 0.16014,127.9578 c -2.25808,21.44374 -11.51459,40.45325 -27.35318,56.30785 -17.85644,18.17673 -42.29494,28.36211 -67.80642,28.0258 H 204.15684 v -0.75269 c -20.8512,-2.25808 -39.46033,-11.09822 -54.88253,-26.02397 -18.01658,-17.60019 -27.35318,-39.36424 -27.35318,-64.21912 z"
     id="path3217"
     style="stroke-width:16.0147" />
</svg>
