<?xml version="1.0" encoding="UTF-8" standalone="no"?>
<!-- Uploaded to: SVG Repo, www.svgrepo.com, Generator: SVG Repo Mixer Tools -->

<svg
   fill="#000000"
   width="512"
   height="512"
   viewBox="0 0 20.48 20.48"
   version="1.1"
   id="svg8639"
   sodipodi:docname="mxlinux.svg"
   inkscape:version="1.2.2 (b0a8486541, 2022-12-01)"
   xmlns:inkscape="http://www.inkscape.org/namespaces/inkscape"
   xmlns:sodipodi="http://sodipodi.sourceforge.net/DTD/sodipodi-0.dtd"
   xmlns="http://www.w3.org/2000/svg"
   xmlns:svg="http://www.w3.org/2000/svg">
  <defs
     id="defs8643" />
  <sodipodi:namedview
     id="namedview8641"
     pagecolor="#505050"
     bordercolor="#eeeeee"
     borderopacity="1"
     inkscape:showpageshadow="0"
     inkscape:pageopacity="0"
     inkscape:pagecheckerboard="0"
     inkscape:deskcolor="#505050"
     showgrid="true"
     inkscape:zoom="1.0925"
     inkscape:cx="238.9016"
     inkscape:cy="308.92449"
     inkscape:window-width="1920"
     inkscape:window-height="1013"
     inkscape:window-x="0"
     inkscape:window-y="35"
     inkscape:window-maximized="1"
     inkscape:current-layer="svg8639">
    <inkscape:grid
       type="xygrid"
       id="grid8762" />
  </sodipodi:namedview>
  <path
     d="m 10.240823,11.262272 2.788532,3.250627 -0.638255,0.765267 -1.814556,-2.144533 -0.9605717,-1.14056 z M 20.452887,1.9935466 V 18.319447 c 0,0.554643 -0.451883,1.006526 -1.010994,1.006526 H 1.0397528 c -0.55911062,0 -1.01099449,-0.451883 -1.01099449,-1.010355 V 1.9935466 c 0,-0.5584721 0.45188387,-1.01035608 1.01099449,-1.01035608 H 19.441893 c 0.559111,0 1.010994,0.45188398 1.010994,1.01035608 z m -1.907741,14.5438964 -1.797961,-2.164321 -1.80243,-2.16049 -0.498476,0.598044 -2.765555,-3.2244591 4.18184,-4.876261 L 14.86242,3.8521425 10.813336,8.5758607 6.7744653,3.8712901 5.1181961,5.2907671 9.3734358,10.250639 8.7524146,10.975696 7.6986571,9.7291854 1.937138,16.537443 Z"
     id="path8637"
     style="stroke-width:0.638255" />
</svg>
