<?xml version="1.0" encoding="UTF-8" standalone="no"?>
<svg
   role="img"
   viewBox="0 0 512 512"
   version="1.1"
   id="svg2596"
   sodipodi:docname="opensuse.svg"
   width="512"
   height="512"
   inkscape:version="1.2.2 (b0a8486541, 2022-12-01)"
   xmlns:inkscape="http://www.inkscape.org/namespaces/inkscape"
   xmlns:sodipodi="http://sodipodi.sourceforge.net/DTD/sodipodi-0.dtd"
   xmlns="http://www.w3.org/2000/svg"
   xmlns:svg="http://www.w3.org/2000/svg"
   xmlns:rdf="http://www.w3.org/1999/02/22-rdf-syntax-ns#"
   xmlns:cc="http://creativecommons.org/ns#"
   xmlns:dc="http://purl.org/dc/elements/1.1/">
  <defs
     id="defs2600" />
  <sodipodi:namedview
     id="namedview2598"
     pagecolor="#505050"
     bordercolor="#eeeeee"
     borderopacity="1"
     inkscape:showpageshadow="0"
     inkscape:pageopacity="0"
     inkscape:pagecheckerboard="0"
     inkscape:deskcolor="#505050"
     showgrid="true"
     inkscape:zoom="1.1380208"
     inkscape:cx="100.17391"
     inkscape:cy="264.93364"
     inkscape:window-width="1920"
     inkscape:window-height="1013"
     inkscape:window-x="0"
     inkscape:window-y="35"
     inkscape:window-maximized="1"
     inkscape:current-layer="svg2596">
    <inkscape:grid
       type="xygrid"
       id="grid2721" />
  </sodipodi:namedview>
  <title
     id="title2592">openSUSE</title>
  <path
     d="M 231.41232,0.94286803 A 255.62181,255.62181 0 0 0 30.152746,99.421171 c 31.185861,8.329009 53.254544,15.486419 59.858108,17.723119 0.106509,-4.04735 0.788167,-40.324347 0.788167,-40.324347 0,0 0.08521,-0.852073 0.532545,-1.278109 0.553848,-0.553848 1.384619,-0.383433 1.384619,-0.383433 8.201195,1.192902 183.238235,27.138519 257.027735,70.125589 9.09588,5.32545 13.59056,11.01304 19.21424,16.74323 20.40714,21.0888 47.35394,108.80968 50.25099,126.89492 0.10651,0.70296 -0.76687,1.49113 -1.1503,1.76805 a 110.27951,110.27951 0 0 1 -6.66747,4.85682 c -17.46749,11.716 -57.68532,39.877 -109.27832,35.27581 C 255.7603,326.71157 195.22054,300.1482 122.2192,252.0274 c 7.15742,16.82843 14.22962,33.65687 21.30182,50.50661 10.58701,5.49586 112.62271,57.5149 162.98021,56.47111 40.55866,-0.85207 83.95046,-20.62016 101.31145,-31.05805 0,0 3.81302,-2.30059 5.47456,-1.02248 1.81066,1.40592 1.29941,3.5574 0.87338,5.75149 -1.06509,4.98462 -3.4935,14.0592 -5.15504,18.38347 l -1.38462,3.5148 c -1.98107,5.32545 -3.89823,10.26747 -7.58345,13.31363 -10.22487,9.28759 -26.54206,16.70063 -52.10424,27.79887 -39.51488,17.29708 -103.63335,28.28882 -163.17193,27.90539 -21.32312,-0.46864 -41.92197,-2.83315 -60.00722,-4.94203 C 87.62505,414.45376 57.419073,411.04546 38.993,424.3804 A 255.62181,255.62181 0 0 0 231.41232,512.1865 255.62181,255.62181 0 0 0 487.03414,256.56468 255.62181,255.62181 0 0 0 231.41232,0.94286803 Z M 288.41599,149.26743 a 74.620267,74.620267 0 0 0 -53.70188,20.06631 74.513758,74.513758 0 0 0 -23.73023,52.16815 75.152813,75.152813 0 0 0 72.21316,77.53862 74.130326,74.130326 0 0 0 53.76579,-20.15152 74.641569,74.641569 0 0 0 23.73023,-52.10425 75.131511,75.131511 0 0 0 -72.27707,-77.53862 z m -0.63906,22.04738 a 52.359868,52.359868 0 0 1 50.44271,54.08531 51.763417,51.763417 0 0 1 -16.48761,36.3409 52.317264,52.317264 0 0 1 -37.5338,14.0379 52.423773,52.423773 0 0 1 -50.3575,-54.14922 c 0.42604,-13.95269 6.39055,-26.84029 16.55151,-36.3622 a 51.529097,51.529097 0 0 1 37.406,-13.95269 z m 8.56333,26.20123 c -12.82369,0 -23.15507,6.92309 -23.15507,15.48643 0,8.52072 10.33138,15.44381 23.15507,15.44381 12.78109,0 23.17638,-6.94439 23.17638,-15.44381 0,-8.56334 -10.37398,-15.46512 -23.17638,-15.46512 z"
     id="path2594"
     style="stroke-width:21.3018" />
  <metadata
     id="metadata2719">
    <rdf:RDF>
      <cc:Work
         rdf:about="">
        <dc:title>openSUSE</dc:title>
      </cc:Work>
    </rdf:RDF>
  </metadata>
</svg>
