<?xml version="1.0" encoding="UTF-8" standalone="no"?>
<!-- Uploaded to: SVG Repo, www.svgrepo.com, Generator: SVG Repo Mixer Tools -->

<svg
   fill="#000000"
   width="512"
   height="512"
   viewBox="0 0 15.36 15.36"
   role="img"
   version="1.1"
   id="svg8995"
   sodipodi:docname="slackware.svg"
   inkscape:version="1.2.2 (b0a8486541, 2022-12-01)"
   xmlns:inkscape="http://www.inkscape.org/namespaces/inkscape"
   xmlns:sodipodi="http://sodipodi.sourceforge.net/DTD/sodipodi-0.dtd"
   xmlns="http://www.w3.org/2000/svg"
   xmlns:svg="http://www.w3.org/2000/svg"
   xmlns:rdf="http://www.w3.org/1999/02/22-rdf-syntax-ns#"
   xmlns:cc="http://creativecommons.org/ns#"
   xmlns:dc="http://purl.org/dc/elements/1.1/">
  <defs
     id="defs8999" />
  <sodipodi:namedview
     id="namedview8997"
     pagecolor="#505050"
     bordercolor="#eeeeee"
     borderopacity="1"
     inkscape:showpageshadow="0"
     inkscape:pageopacity="0"
     inkscape:pagecheckerboard="0"
     inkscape:deskcolor="#505050"
     showgrid="false"
     inkscape:zoom="0.77251416"
     inkscape:cx="160.51486"
     inkscape:cy="407.11228"
     inkscape:window-width="1920"
     inkscape:window-height="1013"
     inkscape:window-x="0"
     inkscape:window-y="35"
     inkscape:window-maximized="1"
     inkscape:current-layer="svg8995" />
  <title
     id="title8991">Slackware icon</title>
  <path
     d="m 8.2988394,1.4516407 c -0.3750018,-0.00642 -0.8033,0 -0.9535575,0.017338 -1.5796305,0.181079 -2.6571183,0.8347635 -3.052026,1.8563864 -0.1399834,0.3544536 -0.1759425,0.6434104 -0.1560366,1.1378477 0.030823,0.7763305 0.2690508,1.2868208 0.8103633,1.7607101 0.7866046,0.6806537 1.9135361,0.9683262 3.8514731,0.9683262 1.7574993,0 2.3822883,0.2651983 2.5145663,1.0755615 C 11.514607,9.4666603 10.305484,10.239138 8.4792769,10.083101 7.2733637,9.9803612 6.2344036,9.4974824 5.7675778,8.8200391 A 4.9906051,4.9906051 0 0 1 5.539623,8.4212788 C 5.2943308,7.933905 5.1286622,7.7939215 4.7844826,7.7939215 4.5083683,7.7971321 4.3144461,7.8998723 4.1950106,8.1111318 L 4.1096077,8.2646 v 2.587768 l 0.087971,0.190712 c 0.1059509,0.220891 0.2568506,0.350601 0.477742,0.404539 0.2247442,0.05779 0.5098482,-0.02311 0.9118192,-0.258134 l 0.3210634,-0.186217 0.5303962,0.118794 c 1.1686697,0.258777 1.7658471,0.335832 2.6102431,0.335832 0.7082652,0.0032 0.9940124,-0.02954 1.5764194,-0.183006 0.72175,-0.190711 1.267558,-0.50407 1.744657,-1.008138 C 12.883621,9.7247951 13.108365,9.0768897 13.074333,8.2459784 13.030025,7.2005968 12.628054,6.5135217 11.79008,6.0537594 11.173638,5.7166432 10.318326,5.5464797 8.9794932,5.4886883 7.6682715,5.4334654 7.1853925,5.3891587 6.7224195,5.2832079 6.3949352,5.2055106 6.2183504,5.1226764 6.0314916,4.9525129 5.6121833,4.5743006 5.6526372,3.8255814 6.1188208,3.3587556 6.5310659,2.9497212 7.0890736,2.7628625 7.900079,2.7628625 c 0.9195247,0.00321 1.536608,0.173374 2.190935,0.6132306 0.118793,0.08155 0.462973,0.3981182 0.766056,0.7012018 0.568924,0.5791978 0.728813,0.6947805 0.967042,0.6947805 0.156679,0 0.378854,-0.1046665 0.470036,-0.2208914 0.166953,-0.2112595 0.194565,-0.4045395 0.194565,-1.4126777 0,-1.0665716 -0.02761,-1.2264611 -0.242082,-1.465332 -0.248503,-0.2729037 -0.544522,-0.2696931 -1.12372,0.019906 L 10.744056,1.8837917 10.339517,1.7746302 C 9.3788957,1.5229168 9.0308632,1.468336 8.2988394,1.4509986 Z M 0,9.5083985 V 15.287535 H 15.411029 V 14.645408 H 0.64212623 V 9.5083985 Z"
     id="path8993"
     style="stroke-width:0.642126" />
  <metadata
     id="metadata9118">
    <rdf:RDF>
      <cc:Work
         rdf:about="">
        <dc:title>Slackware icon</dc:title>
      </cc:Work>
    </rdf:RDF>
  </metadata>
</svg>
