<?xml version="1.0" encoding="UTF-8" standalone="no"?>
<svg
   enable-background="new 0 0 30 30"
   height="512"
   id="Layer_1"
   version="1.1"
   viewBox="0 0 512 512"
   width="512"
   xml:space="preserve"
   sodipodi:docname="default.svg"
   inkscape:version="1.2.2 (b0a8486541, 2022-12-01)"
   xmlns:inkscape="http://www.inkscape.org/namespaces/inkscape"
   xmlns:sodipodi="http://sodipodi.sourceforge.net/DTD/sodipodi-0.dtd"
   xmlns="http://www.w3.org/2000/svg"
   xmlns:svg="http://www.w3.org/2000/svg"><defs
     id="defs1723" /><sodipodi:namedview
     id="namedview1721"
     pagecolor="#505050"
     bordercolor="#eeeeee"
     borderopacity="1"
     inkscape:showpageshadow="0"
     inkscape:pageopacity="0"
     inkscape:pagecheckerboard="0"
     inkscape:deskcolor="#505050"
     showgrid="true"
     inkscape:zoom="0.6437618"
     inkscape:cx="139.80326"
     inkscape:cy="362.7118"
     inkscape:window-width="1920"
     inkscape:window-height="1013"
     inkscape:window-x="0"
     inkscape:window-y="35"
     inkscape:window-maximized="1"
     inkscape:current-layer="Layer_1"><inkscape:grid
       type="xygrid"
       id="grid1842" /></sodipodi:namedview><g
     id="g1718"
     transform="matrix(17.047158,0,0,17.047158,1.5841075,0.74177112)"><path
       clip-rule="evenodd"
       d="m 25.019,20.877 c 0.646,0.277 0.914,0.816 1.034,1.438 0.129,0.664 0.327,1.285 0.829,1.771 0.067,0.064 0.115,0.15 0.167,0.23 0.618,0.939 0.477,1.602 -0.49,2.162 -0.433,0.252 -0.891,0.461 -1.338,0.686 -0.674,0.338 -1.265,0.771 -1.765,1.348 -0.636,0.73 -1.413,1.256 -2.392,1.439 -1.171,0.219 -2.2,-0.293 -2.7,-1.387 -0.107,-0.234 -0.228,-0.305 -0.48,-0.318 -0.621,-0.037 -1.242,-0.1 -1.858,-0.191 -1.085,-0.16 -2.127,0.107 -3.184,0.262 -0.418,0.061 -0.709,0.199 -0.986,0.555 -0.546,0.701 -1.372,0.881 -2.204,0.771 C 8.977,29.553 8.284,29.383 7.672,29.094 6.78,28.676 5.857,28.483 4.897,28.379 4.534,28.34 4.169,28.291 3.813,28.215 2.85,28.006 2.393,27.381 2.649,26.436 2.86,25.657 2.889,24.915 2.789,24.12 2.646,22.985 2.99,22.452 4.117,22.132 5.019,21.876 5.362,21.095 5.914,20.505 5.957,20.458 5.949,20.349 5.942,20.271 5.785,18.73 6.245,17.324 6.891,15.964 c 0.708,-1.49 1.657,-2.825 2.686,-4.108 1.119,-1.395 1.572,-3 1.458,-4.777 -0.085,-1.338 -0.199,-2.678 0.123,-4.006 0.42,-1.74 1.616,-2.844 3.394,-3.012 0.759,-0.072 1.556,-0.104 2.295,0.045 1.727,0.346 2.545,1.613 2.931,3.223 0.303,1.264 0.342,2.553 0.286,3.84 -0.055,1.242 0.231,2.365 0.979,3.359 0.538,0.715 1.128,1.391 1.632,2.129 0.632,0.928 1.274,1.86 1.775,2.86 0.834,1.663 1.152,3.323 0.569,5.36 z M 11.33,24.633 c 0.435,0.732 0.932,1.324 1.756,1.607 1.837,0.633 3.51,0.25 5.096,-0.74 0.177,-0.109 0.36,-0.332 0.396,-0.527 0.168,-0.943 0.287,-1.896 0.422,-2.848 0.126,-0.893 0.308,-1.754 1.223,-2.219 0.079,-0.041 0.118,-0.186 0.149,-0.289 0.168,-0.549 0.438,-0.813 0.991,-0.727 1.104,0.172 2.2,0.418 2.577,1.764 0.226,-0.375 0.112,-0.697 -0.124,-0.938 -0.268,-0.275 -0.58,-0.539 -0.923,-0.701 -0.436,-0.203 -0.591,-0.402 -0.551,-0.941 0.137,-1.842 -0.721,-3.307 -1.951,-4.593 -0.026,-0.027 -0.074,-0.035 -0.112,-0.051 1.25,1.479 2.077,3.052 1.493,5.054 -0.656,-0.049 -0.665,-0.047 -0.724,-0.334 -0.246,-1.195 -0.733,-2.295 -1.269,-3.383 -0.445,-0.909 -0.84,-1.847 -1.211,-2.788 -0.325,-0.824 -0.586,-1.678 -0.868,-2.496 -0.308,0.203 -0.597,0.418 -0.908,0.596 -0.394,0.225 -0.811,0.406 -1.205,0.631 -0.997,0.566 -1.807,0.49 -2.679,-0.26 -0.239,-0.207 -0.504,-0.383 -0.812,-0.613 -0.149,1.578 -0.68,2.939 -1.274,4.282 C 10.553,14.726 10.28,15.33 9.999,15.93 9.467,17.067 9.182,18.266 9.072,19.602 8.593,18.909 8.46,18.225 8.507,17.497 8.567,16.556 8.908,15.704 9.343,14.882 9.508,14.569 9.654,14.249 9.81,13.93 9.78,13.916 9.749,13.903 9.719,13.889 9.03,14.977 8.407,16.1 8.157,17.381 c -0.326,1.668 0.228,2.766 1.679,3.627 0.911,0.539 1.743,1.199 2.233,2.18 0.395,0.785 0.14,1.273 -0.739,1.445 z m -1.918,4.08 c 0.843,-0.063 1.447,-0.176 1.793,-0.793 0.346,-0.615 0.231,-1.213 -0.14,-1.773 C 10.831,25.792 10.558,25.461 10.322,25.106 9.88,24.438 9.447,23.762 9.02,23.085 8.712,22.595 8.461,22.065 8.113,21.608 7.596,20.928 6.702,20.618 6.021,21.68 c -0.37,0.578 -0.86,0.943 -1.52,1.143 -0.686,0.207 -0.873,0.613 -0.816,1.336 0.042,0.547 0.124,1.129 -0.008,1.645 -0.305,1.193 -0.102,1.574 1.121,1.699 1.11,0.115 2.193,0.291 3.212,0.814 0.482,0.246 1.06,0.304 1.402,0.396 z M 20.69,20.959 c -0.163,0.207 -0.37,0.383 -0.459,0.607 -0.141,0.348 -0.256,0.727 -0.286,1.098 -0.096,1.156 -0.208,2.303 -0.6,3.404 -0.08,0.225 -0.126,0.461 -0.169,0.695 -0.134,0.719 -0.063,1.389 0.549,1.887 0.603,0.494 1.294,0.51 1.953,0.191 0.484,-0.232 0.974,-0.537 1.335,-0.928 0.64,-0.693 1.384,-1.195 2.225,-1.588 0.323,-0.15 0.642,-0.32 0.936,-0.52 0.339,-0.23 0.405,-0.502 0.225,-0.873 -0.119,-0.242 -0.266,-0.484 -0.448,-0.684 -0.318,-0.35 -0.483,-0.758 -0.581,-1.207 -0.062,-0.279 -0.127,-0.563 -0.244,-0.82 -0.278,-0.621 -1.081,-0.758 -1.628,-0.359 -0.348,0.254 -0.753,0.459 -1.162,0.596 -0.52,0.176 -0.978,-0.029 -1.247,-0.506 -0.161,-0.284 -0.249,-0.608 -0.399,-0.993 z m -6.282,-10.48 c 0.155,-0.041 0.431,-0.068 0.667,-0.182 C 15.687,10.01 16.283,9.688 16.881,9.371 16.993,9.312 17.095,9.23 17.191,9.146 17.833,8.574 17.73,7.939 16.947,7.593 16.386,7.347 15.828,7.097 15.273,6.837 14.543,6.499 13.837,6.48 13.174,6.987 12.747,7.313 12.33,7.653 11.914,7.993 11.665,8.194 11.606,8.45 11.733,8.749 c 0.201,0.471 1.813,1.648 2.334,1.701 0.075,0.01 0.151,0.014 0.341,0.029 z M 16.565,7.11 c 0.148,0.064 0.264,0.104 0.366,0.164 0.337,0.201 0.564,0.066 0.626,-0.268 C 17.648,6.508 17.77,5.988 17.705,5.498 17.598,4.68 16.986,4.123 16.347,4.09 15.579,4.053 14.94,4.688 14.801,5.621 c -0.107,0.717 -0.088,0.744 0.611,0.908 0.075,-0.299 0.104,-0.621 0.243,-0.885 0.09,-0.172 0.343,-0.363 0.517,-0.357 0.174,0.004 0.409,0.211 0.498,0.389 0.234,0.466 0.155,0.946 -0.105,1.434 z m 4.688,13.349 c 0.024,0.4 0.109,0.84 0.544,1.045 0.413,0.197 0.784,-0.023 1.12,-0.268 0.083,-0.061 0.16,-0.135 0.227,-0.213 0.239,-0.275 0.236,-0.604 -0.064,-0.811 -0.279,-0.193 -0.595,-0.357 -0.917,-0.465 -0.609,-0.202 -0.914,0.04 -0.91,0.712 z M 13.159,6.647 C 13.359,6.489 13.67,6.364 13.688,6.204 13.756,5.61 13.602,5.044 13.141,4.616 12.738,4.243 12.257,4.3 11.908,4.737 11.347,5.436 11.438,6.784 12.104,7.44 12.217,7.356 12.333,7.27 12.458,7.176 12.128,6.813 12.062,6.397 12.16,5.977 c 0.042,-0.178 0.242,-0.316 0.37,-0.473 0.145,0.123 0.339,0.221 0.421,0.377 0.109,0.208 0.131,0.46 0.208,0.766 z"
       fill-rule="evenodd"
       id="path1714" /><path
       clip-rule="evenodd"
       d="m 12.789,10.696 c 0.083,0.07 0.167,0.137 0.247,0.211 0.788,0.73 1.405,0.816 2.355,0.314 0.274,-0.145 0.537,-0.313 0.811,-0.461 0.101,-0.053 0.218,-0.078 0.343,-0.07 -0.781,0.41 -1.452,1.1 -2.443,0.963 -0.592,-0.082 -0.998,-0.461 -1.385,-0.861 0.024,-0.031 0.048,-0.063 0.072,-0.096 z"
       fill-rule="evenodd"
       id="path1716" /></g></svg>
