<?xml version="1.0" encoding="UTF-8" standalone="no"?>
<svg
   role="img"
   focusable="false"
   aria-hidden="true"
   viewBox="0 0 512 512"
   version="1.1"
   id="svg6937"
   sodipodi:docname="ubuntu.svg"
   width="512"
   height="512"
   inkscape:version="1.2.2 (b0a8486541, 2022-12-01)"
   xmlns:inkscape="http://www.inkscape.org/namespaces/inkscape"
   xmlns:sodipodi="http://sodipodi.sourceforge.net/DTD/sodipodi-0.dtd"
   xmlns="http://www.w3.org/2000/svg"
   xmlns:svg="http://www.w3.org/2000/svg">
  <defs
     id="defs6941" />
  <sodipodi:namedview
     id="namedview6939"
     pagecolor="#505050"
     bordercolor="#eeeeee"
     borderopacity="1"
     inkscape:showpageshadow="0"
     inkscape:pageopacity="0"
     inkscape:pagecheckerboard="0"
     inkscape:deskcolor="#505050"
     showgrid="true"
     inkscape:zoom="0.68974479"
     inkscape:cx="-43.494348"
     inkscape:cy="408.12197"
     inkscape:window-width="1920"
     inkscape:window-height="1013"
     inkscape:window-x="0"
     inkscape:window-y="35"
     inkscape:window-maximized="1"
     inkscape:current-layer="svg6937">
    <inkscape:grid
       type="xygrid"
       id="grid7060" />
  </sodipodi:namedview>
  <path
     d="m 417.83483,274.13174 c -8.48902,59.65218 -59.89206,105.67393 -121.85048,105.67393 -16.19294,0 -31.66074,-3.15121 -45.83094,-8.86524 l -42.6741,73.9096 c 27.32626,12.87805 57.38953,19.67142 88.49958,19.67142 16.2529,0 32.22229,-1.87539 47.66286,-5.474 1.18847,-23.36254 13.81033,-45.66734 35.56991,-58.22912 21.73236,-12.55087 47.31937,-12.34914 68.12484,-1.73391 32.45134,-34.44681 51.85558,-78.11323 55.7157,-124.95281 H 417.83483 Z M 172.89621,256.71752 c 0,-39.21743 18.43378,-74.20397 47.08492,-96.75959 L 177.32337,86.064688 c -10.00473,6.989688 -19.46968,14.900792 -28.28584,23.711492 -24.68742,24.68742 -42.39061,54.49441 -52.133626,87.02748 19.627796,12.71446 32.625766,34.78485 32.625766,59.91386 0,25.1236 -12.99797,47.19944 -32.625766,59.90845 9.743016,32.53306 27.446206,62.34006 52.133626,87.02747 8.8107,8.81071 18.26475,16.7109 28.26403,23.70604 l 42.66321,-73.89869 C 191.31908,330.90517 172.89621,295.91863 172.89621,256.71752 Z M 295.98435,133.62395 c 61.94205,0 113.33423,45.99449 121.84502,105.62485 h 85.22828 C 499.18671,192.39285 479.76056,148.72102 447.282,114.27967 426.48198,124.87321 400.90588,125.07498 379.17897,112.53511 357.43572,99.978782 344.8194,77.712115 343.60902,54.376848 c -15.43507,-3.598223 -31.38269,-5.463086 -47.62467,-5.463086 -31.09919,0 -61.15151,6.78796 -88.48324,19.660512 l 42.66866,73.904146 c 14.1702,-5.70295 29.63254,-8.85434 45.81458,-8.85434 z M 464.59263,50.745558 A 49.74557,49.74557 0 0 1 414.84707,100.49116 49.74557,49.74557 0 0 1 365.10146,50.745558 49.74557,49.74557 0 0 1 414.84707,1 49.74557,49.74557 0 0 1 464.59263,50.745558 Z m 0.0426,411.862192 a 49.74557,49.74557 0 0 1 -49.74556,49.74556 49.74557,49.74557 0 0 1 -49.74562,-49.74556 49.74557,49.74557 0 0 1 49.74562,-49.7456 49.74557,49.74557 0 0 1 49.74556,49.7456 z M 107.93363,256.71756 a 49.74557,49.74557 0 0 1 -49.745567,49.74556 49.74557,49.74557 0 0 1 -49.745571,-49.74556 49.74557,49.74557 0 0 1 49.745571,-49.7456 49.74557,49.74557 0 0 1 49.745567,49.7456 z"
     id="path6935"
     style="stroke-width:42.6128" />
</svg>
