<?xml version="1.0" encoding="UTF-8" standalone="no"?>
<svg
   width="60"
   height="60"
   version="1.1"
   id="svg6520"
   sodipodi:docname="color_palette.svg"
   inkscape:version="1.2.2 (b0a8486541, 2022-12-01)"
   xmlns:inkscape="http://www.inkscape.org/namespaces/inkscape"
   xmlns:sodipodi="http://sodipodi.sourceforge.net/DTD/sodipodi-0.dtd"
   xmlns="http://www.w3.org/2000/svg"
   xmlns:svg="http://www.w3.org/2000/svg">
  <defs
     id="defs6524" />
  <sodipodi:namedview
     id="namedview6522"
     pagecolor="#505050"
     bordercolor="#eeeeee"
     borderopacity="1"
     inkscape:showpageshadow="0"
     inkscape:pageopacity="0"
     inkscape:pagecheckerboard="0"
     inkscape:deskcolor="#505050"
     showgrid="true"
     inkscape:zoom="9.656427"
     inkscape:cx="12.323399"
     inkscape:cy="39.81804"
     inkscape:window-width="1920"
     inkscape:window-height="1013"
     inkscape:window-x="0"
     inkscape:window-y="35"
     inkscape:window-maximized="1"
     inkscape:current-layer="svg6520">
    <inkscape:grid
       type="xygrid"
       id="grid6648"
       originx="0"
       originy="0" />
  </sodipodi:namedview>
  <g
     id="g6646"
     style="fill:#ffffff;fill-opacity:1"
     transform="matrix(1.8656509,0,0,1.8656509,14.990489,15.912077)">
    <g
       fill="#474747"
       id="g6518"
       style="fill:#ffffff;fill-opacity:1">
      <path
         d="M 7.892,0.003 C 5.782,0.033 2.947,0.805 2.995,3.283 3.045,5.87 5.912,4.945 6.145,6.002 6.18,5.957 6.233,5.92 6.27,5.877 6.467,5.663 6.665,5.489 6.863,5.283 7.175,4.931 7.499,4.604 7.83,4.252 8.936,3.074 8.984,3.002 11.626,1.002 10.591,0.382 9.368,0.037 8.329,0.002 8.195,-0.002 8.033,0.001 7.892,0.002 Z m -1.903,1.53 c 0.827,0 1.497,0.672 1.497,1.5 a 1.499,1.499 0 1 1 -1.497,-1.5 z m 7.269,0.662 C 11.84,4.43 10.89,5.751 9.888,6.783 9.249,7.44 8.725,8.094 8.266,8.563 c -0.839,0.891 -1.938,1.942 -3.15,3.094 0.063,1.469 0.81,2.746 3.244,3.218 3.898,0.756 8.027,-1.824 7.611,-7.061 C 15.793,5.566 14.566,3.533 13.258,2.195 Z M 13.6,6.002 a 1,1 0 0 1 0,2 1,1 0 0 1 0,-2 z m -0.624,3 a 1,1 0 0 1 0,1.999 1,1 0 0 1 0,-2 z M 7.986,11 a 1,1 0 0 1 0,2 1,1 0 0 1 0,-2 z m 2.994,0 a 1,1 0 0 1 0,2 1,1 0 0 1 0,-2 z M 0,13.5 c 1.552,0 1.394,-1.788 2.147,-2.286 0.874,-0.577 1.639,0.138 1.792,0.726 0.192,0.742 -0.117,1.631 -1.13,1.885 C 1.735,14.093 0.147,14.101 0,13.499 Z"
         id="path6514"
         style="fill:#ffffff;fill-opacity:1" />
      <path
         d="M 14.037,0.003 C 12.237,1.302 9.831,3.305 7.922,5.336 7.749,5.521 7.582,5.699 7.418,5.883 7.314,5.991 7.206,6.079 7.103,6.191 7.037,6.268 6.977,6.354 6.913,6.431 5.04,8.501 3.193,11.111 1.996,13.063 4.974,10.766 6.912,8.898 8.143,7.593 8.383,7.347 8.673,7.026 8.993,6.67 10.197,5.335 11.919,3.232 14.037,0.003 Z"
         id="path6516"
         style="fill:#ffffff;fill-opacity:1" />
    </g>
  </g>
</svg>
