<?xml version="1.0" encoding="UTF-8" standalone="no"?>
<svg
   width="60"
   height="60"
   viewBox="0 0 24 24"
   fill="none"
   stroke="#ECEFF4"
   stroke-width="2"
   stroke-linecap="round"
   stroke-linejoin="round"
   class="feather feather-command"
   version="1.1"
   id="svg3019"
   sodipodi:docname="command.svg"
   inkscape:version="1.2.2 (b0a8486541, 2022-12-01)"
   xmlns:inkscape="http://www.inkscape.org/namespaces/inkscape"
   xmlns:sodipodi="http://sodipodi.sourceforge.net/DTD/sodipodi-0.dtd"
   xmlns="http://www.w3.org/2000/svg"
   xmlns:svg="http://www.w3.org/2000/svg">
  <defs
     id="defs3023" />
  <sodipodi:namedview
     id="namedview3021"
     pagecolor="#505050"
     bordercolor="#eeeeee"
     borderopacity="1"
     inkscape:showpageshadow="0"
     inkscape:pageopacity="0"
     inkscape:pagecheckerboard="0"
     inkscape:deskcolor="#505050"
     showgrid="true"
     inkscape:zoom="10.300189"
     inkscape:cx="8.6891611"
     inkscape:cy="28.931509"
     inkscape:window-width="1721"
     inkscape:window-height="810"
     inkscape:window-x="133"
     inkscape:window-y="104"
     inkscape:window-maximized="0"
     inkscape:current-layer="svg3019">
    <inkscape:grid
       type="xygrid"
       id="grid3145" />
  </sodipodi:namedview>
  <g
     id="g3143"
     transform="matrix(0.59705275,0,0,0.59705275,4.8072381,4.8456196)">
    <path
       d="m 18,3 a 3,3 0 0 0 -3,3 v 12 a 3,3 0 0 0 3,3 3,3 0 0 0 3,-3 3,3 0 0 0 -3,-3 H 6 a 3,3 0 0 0 -3,3 3,3 0 0 0 3,3 3,3 0 0 0 3,-3 V 6 A 3,3 0 0 0 6,3 3,3 0 0 0 3,6 3,3 0 0 0 6,9 H 18 A 3,3 0 0 0 21,6 3,3 0 0 0 18,3 Z"
       id="path3017" />
  </g>
</svg>
