<?xml version="1.0" encoding="UTF-8" standalone="no"?>
<svg
   width="60"
   height="60"
   viewBox="0 0 24 24"
   fill="none"
   stroke="#ECEFF4"
   stroke-width="2"
   stroke-linecap="round"
   stroke-linejoin="round"
   class="feather feather-globe"
   version="1.1"
   id="svg266"
   sodipodi:docname="globe.svg"
   inkscape:version="1.2.2 (b0a8486541, 2022-12-01)"
   xmlns:inkscape="http://www.inkscape.org/namespaces/inkscape"
   xmlns:sodipodi="http://sodipodi.sourceforge.net/DTD/sodipodi-0.dtd"
   xmlns="http://www.w3.org/2000/svg"
   xmlns:svg="http://www.w3.org/2000/svg">
  <defs
     id="defs270" />
  <sodipodi:namedview
     id="namedview268"
     pagecolor="#505050"
     bordercolor="#eeeeee"
     borderopacity="1"
     inkscape:showpageshadow="0"
     inkscape:pageopacity="0"
     inkscape:pagecheckerboard="0"
     inkscape:deskcolor="#505050"
     showgrid="true"
     inkscape:zoom="13.45"
     inkscape:cx="22.04461"
     inkscape:cy="30.148699"
     inkscape:window-width="1920"
     inkscape:window-height="1013"
     inkscape:window-x="0"
     inkscape:window-y="35"
     inkscape:window-maximized="1"
     inkscape:current-layer="svg266">
    <inkscape:grid
       type="xygrid"
       id="grid441" />
  </sodipodi:namedview>
  <g
     id="g439"
     transform="matrix(0.54234073,0,0,0.54234073,5.4889403,5.4725498)">
    <path
       id="circle260"
       d="M 22,12 A 10,10 0 0 1 12,22 10,10 0 0 1 2,12 10,10 0 0 1 12,2 10,10 0 0 1 22,12 Z" />
    <path
       id="line262"
       d="M 2,12 H 22" />
    <path
       d="M 12,2 A 15.3,15.3 0 0 1 16,12 15.3,15.3 0 0 1 12,22 15.3,15.3 0 0 1 8,12 15.3,15.3 0 0 1 12,2 Z"
       id="path264" />
  </g>
</svg>
