<?xml version="1.0" encoding="UTF-8" standalone="no"?>
<svg
   id="Layer_1"
   data-name="Layer 1"
   viewBox="0 0 60 60"
   version="1.1"
   sodipodi:docname="london-eye.svg"
   width="60"
   height="60"
   inkscape:version="1.2.2 (b0a8486541, 2022-12-01)"
   xmlns:inkscape="http://www.inkscape.org/namespaces/inkscape"
   xmlns:sodipodi="http://sodipodi.sourceforge.net/DTD/sodipodi-0.dtd"
   xmlns="http://www.w3.org/2000/svg"
   xmlns:svg="http://www.w3.org/2000/svg"
   xmlns:rdf="http://www.w3.org/1999/02/22-rdf-syntax-ns#"
   xmlns:cc="http://creativecommons.org/ns#"
   xmlns:dc="http://purl.org/dc/elements/1.1/">
  <defs
     id="defs3665" />
  <sodipodi:namedview
     id="namedview3663"
     pagecolor="#505050"
     bordercolor="#eeeeee"
     borderopacity="1"
     inkscape:showpageshadow="0"
     inkscape:pageopacity="0"
     inkscape:pagecheckerboard="0"
     inkscape:deskcolor="#505050"
     showgrid="true"
     inkscape:zoom="9.656427"
     inkscape:cx="8.0775219"
     inkscape:cy="34.847258"
     inkscape:window-width="1920"
     inkscape:window-height="1013"
     inkscape:window-x="0"
     inkscape:window-y="35"
     inkscape:window-maximized="1"
     inkscape:current-layer="Layer_1">
    <inkscape:grid
       type="xygrid"
       id="grid3786" />
  </sodipodi:namedview>
  <title
     id="title3656">london eye</title>
  <g
     id="g3790"
     transform="matrix(0.5150892,0,0,0.5150892,13.50588,13.510039)"
     style="fill:#ffffff">
    <path
       d="m 5,61 h 54 a 1,1 0 0 0 0,-2 H 42.57 A 6,6 0 0 1 36.75,54.32 L 35.8,50 a 1.47,1.47 0 0 0 -1.55,-1.15 l -1.29,0.1 a 12.47,12.47 0 0 1 -1.93,0 l -1.29,-0.1 A 1.47,1.47 0 0 0 28.2,50 l -1,4.35 A 6,6 0 0 1 21.43,59 H 5 a 1,1 0 0 0 0,2 z"
       id="path3658"
       style="fill:#ffffff" />
    <path
       d="m 54,25 a 4,4 0 0 0 -2.33,-3.63 19.8,19.8 0 0 0 -3.21,-7.69 4,4 0 0 0 -5.14,-5.14 19.8,19.8 0 0 0 -7.69,-3.21 4,4 0 0 0 -7.25,0 19.89,19.89 0 0 0 -7.71,3.21 4,4 0 0 0 -5.13,5.13 19.89,19.89 0 0 0 -3.21,7.71 4,4 0 0 0 0,7.25 19.8,19.8 0 0 0 3.21,7.69 4,4 0 0 0 5.14,5.14 19.8,19.8 0 0 0 7.69,3.21 4,4 0 0 0 7.25,0 19.89,19.89 0 0 0 7.71,-3.21 4,4 0 0 0 5.13,-5.13 19.89,19.89 0 0 0 3.21,-7.71 A 4,4 0 0 0 54,25 Z m -7.27,-6.19 v 0 A 3.74,3.74 0 0 1 43.28,24 h -7.1 a 0.73,0.73 0 0 1 -0.52,-1.25 l 5.12,-5.12 a 3.65,3.65 0 0 1 5.95,1.18 z M 36.18,26 h 7.19 a 3.68,3.68 0 0 1 3.4,5.1 v 0.1 a 3.65,3.65 0 0 1 -6,1.17 L 35.65,27.25 A 0.73,0.73 0 0 1 36.18,26 Z m 13.67,-1 h -2 A 2.15,2.15 0 0 1 50,22.85 v 2 A 0.15,0.15 0 0 0 49.85,25 Z M 44.73,10.13 v 2 a 0.15,0.15 0 0 0 -0.15,0.15 h -2 a 2.15,2.15 0 0 1 2.15,-2.15 z m -6.54,0.14 v 0 a 3.66,3.66 0 0 1 1.18,6 l -5.11,5.11 A 0.73,0.73 0 0 1 33,20.81 v -7.1 a 3.74,3.74 0 0 1 5.18,-3.45 z M 32,40.85 v 2 A 0.15,0.15 0 0 0 31.85,43 h -2 A 2.15,2.15 0 0 1 32,40.85 Z m 0,-36 v 2 A 0.15,0.15 0 0 0 31.85,7 h -2 A 2.15,2.15 0 0 1 32,4.85 Z m -6.19,5.41 h 0.1 a 3.68,3.68 0 0 1 5.1,3.4 v 7.19 a 0.73,0.73 0 0 1 -1.25,0.52 l -5.12,-5.12 a 3.65,3.65 0 0 1 1.17,-5.98 z m 2.53,12.48 A 0.73,0.73 0 0 1 27.82,24 h -7.23 a 3.66,3.66 0 0 1 -3.38,-5.07 3.74,3.74 0 0 1 6.09,-1.2 z m -9.07,12.84 v 2 a 0.15,0.15 0 0 0 -0.15,0.15 h -2 a 2.15,2.15 0 0 1 2.15,-2.15 z m -2,-4.39 v 0 A 3.74,3.74 0 0 1 20.72,26 h 7.1 a 0.73,0.73 0 0 1 0.52,1.25 l -5.12,5.12 a 3.65,3.65 0 0 1 -5.95,-1.18 z m 1.21,-20.91 a 2.13,2.13 0 0 1 0.79,-0.16 v 2 a 0.15,0.15 0 0 0 -0.15,0.15 h -2 a 2.13,2.13 0 0 1 0.16,-0.79 2.15,2.15 0 0 1 1.2,-1.2 z M 12,25 H 11.85 A 2.15,2.15 0 0 1 14,22.85 v 2 A 0.15,0.15 0 0 0 13.85,25 Z m 13.82,14.74 v 0 a 3.65,3.65 0 0 1 -1.18,-6 l 5.12,-5.12 a 0.73,0.73 0 0 1 1.25,0.52 v 7.1 a 3.74,3.74 0 0 1 -5.19,3.5 z m 12.38,0 H 38.1 A 3.68,3.68 0 0 1 33,36.34 v -7.15 a 0.73,0.73 0 0 1 1.25,-0.52 l 5.12,5.12 a 3.65,3.65 0 0 1 -1.18,5.94 z m 4.39,-2 a 2.15,2.15 0 0 1 2.15,-2.15 v 2 a 0.15,0.15 0 0 0 -0.15,0.15 z"
       id="path3660"
       style="fill:#ffffff" />
  </g>
  <metadata
     id="metadata3784">
    <rdf:RDF>
      <cc:Work
         rdf:about="">
        <dc:title>london eye</dc:title>
      </cc:Work>
    </rdf:RDF>
  </metadata>
</svg>
