<?xml version="1.0" encoding="UTF-8" standalone="no"?>
<!-- Generator: Adobe Illustrator 18.1.1, SVG Export Plug-In . SVG Version: 6.00 Build 0)  -->

<svg
   version="1.1"
   id="Capa_1"
   x="0px"
   y="0px"
   viewBox="0 0 60 60"
   xml:space="preserve"
   sodipodi:docname="paintbrush.svg"
   width="60"
   height="60"
   inkscape:version="1.2.2 (b0a8486541, 2022-12-01)"
   xmlns:inkscape="http://www.inkscape.org/namespaces/inkscape"
   xmlns:sodipodi="http://sodipodi.sourceforge.net/DTD/sodipodi-0.dtd"
   xmlns="http://www.w3.org/2000/svg"
   xmlns:svg="http://www.w3.org/2000/svg"><defs
   id="defs5911" /><sodipodi:namedview
   id="namedview5909"
   pagecolor="#505050"
   bordercolor="#eeeeee"
   borderopacity="1"
   inkscape:showpageshadow="0"
   inkscape:pageopacity="0"
   inkscape:pagecheckerboard="0"
   inkscape:deskcolor="#505050"
   showgrid="true"
   inkscape:zoom="9.1041667"
   inkscape:cx="11.203661"
   inkscape:cy="34.215103"
   inkscape:window-width="1920"
   inkscape:window-height="1013"
   inkscape:window-x="0"
   inkscape:window-y="35"
   inkscape:window-maximized="1"
   inkscape:current-layer="Capa_1"><inkscape:grid
     type="xygrid"
     id="grid6412" /></sodipodi:namedview>















<g
   id="g6047"
   transform="matrix(0.31042315,0,0,0.31042315,15.095146,15.411634)"
   style="fill:#ffffff"><g
     id="g5876"
     style="fill:#ffffff">
	<path
   style="fill:#ffffff"
   d="m 11.815,65.812 c -7.569,7.44 -1.176,15.079 -11.235,26.403 -4.54,5.113 18.69,3.554 30.199,-7.76 4.882,-4.798 3.505,-11.793 -1.731,-16.941 -5.236,-5.148 -12.352,-6.5 -17.233,-1.702 z M 95.701,1.293 C 91.815,-2.524 48.806,31.94 36.002,44.528 c -6.354,6.246 -8.476,9.595 -10.424,12.1 -0.847,1.087 0.272,1.424 0.776,1.681 2.517,1.281 4.277,2.475 6.553,4.712 2.277,2.237 3.492,3.968 4.795,6.441 0.261,0.496 0.604,1.597 1.708,0.766 C 41.96,68.313 45.365,66.227 51.719,59.98 64.524,47.392 99.583,5.111 95.701,1.293 Z"
   id="path5874" />
</g><g
     id="g5878"
     style="fill:#ffffff">
</g><g
     id="g5880"
     style="fill:#ffffff">
</g><g
     id="g5882"
     style="fill:#ffffff">
</g><g
     id="g5884"
     style="fill:#ffffff">
</g><g
     id="g5886"
     style="fill:#ffffff">
</g><g
     id="g5888"
     style="fill:#ffffff">
</g><g
     id="g5890"
     style="fill:#ffffff">
</g><g
     id="g5892"
     style="fill:#ffffff">
</g><g
     id="g5894"
     style="fill:#ffffff">
</g><g
     id="g5896"
     style="fill:#ffffff">
</g><g
     id="g5898"
     style="fill:#ffffff">
</g><g
     id="g5900"
     style="fill:#ffffff">
</g><g
     id="g5902"
     style="fill:#ffffff">
</g><g
     id="g5904"
     style="fill:#ffffff">
</g><g
     id="g5906"
     style="fill:#ffffff">
</g></g>
</svg>
