<?xml version="1.0" encoding="UTF-8" standalone="no"?>
<svg
   fill="none"
   height="60"
   viewBox="0 0 60 60"
   width="60"
   version="1.1"
   id="svg4798"
   sodipodi:docname="theme_moon.svg"
   inkscape:version="1.2.2 (b0a8486541, 2022-12-01)"
   xmlns:inkscape="http://www.inkscape.org/namespaces/inkscape"
   xmlns:sodipodi="http://sodipodi.sourceforge.net/DTD/sodipodi-0.dtd"
   xmlns="http://www.w3.org/2000/svg"
   xmlns:svg="http://www.w3.org/2000/svg">
  <sodipodi:namedview
     id="namedview4800"
     pagecolor="#505050"
     bordercolor="#eeeeee"
     borderopacity="1"
     inkscape:showpageshadow="0"
     inkscape:pageopacity="0"
     inkscape:pagecheckerboard="0"
     inkscape:deskcolor="#505050"
     showgrid="true"
     inkscape:zoom="9.1041667"
     inkscape:cx="17.354691"
     inkscape:cy="29.71167"
     inkscape:window-width="1920"
     inkscape:window-height="1013"
     inkscape:window-x="0"
     inkscape:window-y="35"
     inkscape:window-maximized="1"
     inkscape:current-layer="svg4798">
    <inkscape:grid
       type="xygrid"
       id="grid4923" />
  </sodipodi:namedview>
  <g
     id="g4921"
     transform="matrix(1.2779247,0,0,1.2779247,14.687463,14.660733)"
     style="fill:#ffffff">
    <g
       clip-path="url(#clip0_339_5623)"
       id="g4791"
       style="fill:#ffffff">
      <path
         clip-rule="evenodd"
         d="m 10.6338,0.90947 c 0.769,-0.719727 1.9643,-0.719728 2.7333,0 l 2.3256,2.17663 3.1836,0.10533 c 1.0526,0.03482 1.8979,0.88009 1.9327,1.93277 l 0.1054,3.18354 2.1766,2.32556 c 0.7197,0.769 0.7197,1.9644 0,2.7334 l -2.1766,2.3256 -0.1054,3.1835 c -0.0348,1.0527 -0.8801,1.898 -1.9327,1.9328 l -3.1836,0.1053 -2.3256,2.1766 c -0.769,0.7198 -1.9643,0.7198 -2.7333,0 L 8.30819,20.9139 5.12464,20.8086 C 4.07197,20.7738 3.2267,19.9285 3.19187,18.8758 L 3.08654,15.6923 0.909913,13.3667 c -0.719727,-0.769 -0.719728,-1.9644 -10e-7,-2.7334 L 3.08654,8.30774 3.19187,5.1242 C 3.2267,4.07152 4.07196,3.22625 5.12464,3.19143 L 8.30819,3.0861 Z M 8.58287,5.6352 C 9.47214,5.22705 10.4609,5 11.5,5 c 3.866,0 7,3.13401 7,7 0,3.866 -3.134,7 -7,7 C 10.4609,19 9.47214,18.7729 8.58287,18.3648 8.22768,18.2018 8,17.8468 8,17.456 8,17.0651 8.22768,16.7101 8.58287,16.5471 10.3064,15.7561 11.5,14.0164 11.5,12 11.5,9.98362 10.3064,8.24392 8.58287,7.45289 8.22768,7.28987 8,6.93486 8,6.54404 8,6.15322 8.22768,5.79822 8.58287,5.6352 Z"
         fill="#000000"
         fill-rule="evenodd"
         id="path4789"
         style="fill:#ffffff" />
    </g>
  </g>
  <defs
     id="defs4796">
    <clipPath
       id="clip0_339_5623">
      <rect
         fill="#ffffff"
         height="24"
         width="24"
         id="rect4793"
         x="0"
         y="0" />
    </clipPath>
  </defs>
</svg>
