<?xml version="1.0" encoding="UTF-8" standalone="no"?>
<svg
   version="1.1"
   id="mdi-theme-light-dark"
   width="60"
   height="60"
   viewBox="0 0 60 60"
   sodipodi:docname="theme.svg"
   inkscape:version="1.2.2 (b0a8486541, 2022-12-01)"
   xmlns:inkscape="http://www.inkscape.org/namespaces/inkscape"
   xmlns:sodipodi="http://sodipodi.sourceforge.net/DTD/sodipodi-0.dtd"
   xmlns="http://www.w3.org/2000/svg"
   xmlns:svg="http://www.w3.org/2000/svg">
  <defs
     id="defs4226" />
  <sodipodi:namedview
     id="namedview4224"
     pagecolor="#505050"
     bordercolor="#eeeeee"
     borderopacity="1"
     inkscape:showpageshadow="0"
     inkscape:pageopacity="0"
     inkscape:pagecheckerboard="0"
     inkscape:deskcolor="#505050"
     showgrid="true"
     inkscape:zoom="12.875236"
     inkscape:cx="22.640362"
     inkscape:cy="30.484878"
     inkscape:window-width="1920"
     inkscape:window-height="1013"
     inkscape:window-x="0"
     inkscape:window-y="35"
     inkscape:window-maximized="1"
     inkscape:current-layer="mdi-theme-light-dark">
    <inkscape:grid
       type="xygrid"
       id="grid4711"
       originx="0"
       originy="0" />
  </sodipodi:namedview>
  <g
     id="g4346"
     style="fill:#ffffff;fill-opacity:1"
     transform="matrix(1.4280119,0,0,1.4280119,12.727314,13.022554)">
    <path
       d="m 7.5,2 c -1.79,1.15 -3,3.18 -3,5.5 0,2.32 1.21,4.35 3.03,5.5 C 4.46,13 2,10.54 2,7.5 A 5.5,5.5 0 0 1 7.5,2 M 19.07,3.5 20.5,4.93 4.93,20.5 3.5,19.07 19.07,3.5 M 12.89,5.93 11.41,5 9.97,6 10.39,4.3 9,3.24 10.75,3.12 11.33,1.47 12,3.1 13.73,3.13 12.38,4.26 12.89,5.93 M 9.59,9.54 8.43,8.81 7.31,9.59 7.65,8.27 6.56,7.44 7.92,7.35 8.37,6.06 8.88,7.33 10.24,7.36 9.19,8.23 9.59,9.54 M 19,13.5 A 5.5,5.5 0 0 1 13.5,19 c -1.22,0 -2.35,-0.4 -3.26,-1.07 l 7.69,-7.69 C 18.6,11.15 19,12.28 19,13.5 m -4.4,6.58 2.77,-1.15 -0.24,3.35 -2.53,-2.2 m 4.33,-2.7 1.15,-2.77 2.2,2.54 -3.35,0.23 m 1.15,-4.96 -1.14,-2.78 3.34,0.24 -2.2,2.54 m -10.45,6.51 2.77,1.15 -2.53,2.19 z"
       id="path4221"
       style="fill:#ffffff;fill-opacity:1" />
  </g>
</svg>
